<!-- Generated by IcoMoon.io -->
<svg version="1.1" xmlns="http://www.w3.org/2000/svg" width="32" height="32" viewBox="0 0 32 32">
<title>cart</title>
<path d="M9.333 28c0-1.473 1.194-2.667 2.667-2.667s2.667 1.194 2.667 2.667-1.194 2.667-2.667 2.667c-1.473 0-2.667-1.194-2.667-2.667z"></path>
<path d="M24 28c0-1.473 1.194-2.667 2.667-2.667s2.667 1.194 2.667 2.667c0 1.473-1.194 2.667-2.667 2.667s-2.667-1.194-2.667-2.667z"></path>
<path d="M0 1.333c0-0.736 0.597-1.333 1.333-1.333h5.333c0.636 0 1.183 0.449 1.307 1.072l1.12 5.595h21.573c0.397 0 0.774 0.177 1.027 0.483s0.357 0.709 0.282 1.1l-2.135 11.197c-0.183 0.921-0.684 1.748-1.415 2.337-0.728 0.586-1.637 0.898-2.571 0.884h-12.937c-0.934 0.015-1.843-0.298-2.571-0.884-0.731-0.589-1.232-1.415-1.415-2.335-0-0 0 0 0 0l-2.227-11.129c-0.009-0.037-0.017-0.074-0.022-0.112l-1.109-5.54h-4.24c-0.736 0-1.333-0.597-1.333-1.333zM9.628 9.333l1.92 9.594c0.061 0.307 0.228 0.583 0.472 0.779s0.549 0.301 0.862 0.295l0.026-0 12.986 0c0.313 0.006 0.618-0.098 0.862-0.295 0.243-0.195 0.409-0.469 0.471-0.775l1.83-9.598h-19.427z"></path>
</svg>
