<!-- Generated by IcoMoon.io -->
<svg version="1.1" xmlns="http://www.w3.org/2000/svg" width="32" height="32" viewBox="0 0 32 32">
<title>gift</title>
<path d="M5.333 14.667c0.736 0 1.333 0.597 1.333 1.333v12h18.667v-12c0-0.736 0.597-1.333 1.333-1.333s1.333 0.597 1.333 1.333v13.333c0 0.736-0.597 1.333-1.333 1.333h-21.333c-0.736 0-1.333-0.597-1.333-1.333v-13.333c0-0.736 0.597-1.333 1.333-1.333z"></path>
<path d="M1.333 9.333c0-0.736 0.597-1.333 1.333-1.333h26.667c0.736 0 1.333 0.597 1.333 1.333v6.667c0 0.736-0.597 1.333-1.333 1.333h-26.667c-0.736 0-1.333-0.597-1.333-1.333v-6.667zM4 10.667v4h24v-4h-24z"></path>
<path d="M16 8c0.736 0 1.333 0.597 1.333 1.333v20c0 0.736-0.597 1.333-1.333 1.333s-1.333-0.597-1.333-1.333v-20c0-0.736 0.597-1.333 1.333-1.333z"></path>
<path d="M10 4c1.592 0 2.743 1.118 3.582 2.643 0.255 0.463 0.461 0.932 0.624 1.357h-4.205c-0.53 0-1.039-0.211-1.414-0.586s-0.586-0.884-0.586-1.414c0-0.53 0.211-1.039 0.586-1.414s0.884-0.586 1.414-0.586zM16 9.333c1.307-0.261 1.307-0.262 1.307-0.262l-0.001-0.004-0.001-0.007-0.004-0.021c-0.004-0.017-0.009-0.041-0.015-0.071-0.013-0.059-0.032-0.142-0.058-0.244-0.051-0.205-0.129-0.492-0.237-0.834-0.215-0.679-0.559-1.599-1.072-2.532-0.995-1.809-2.844-4.024-5.918-4.024-1.238 0-2.425 0.492-3.3 1.367s-1.367 2.062-1.367 3.3c0 1.238 0.492 2.425 1.367 3.3s2.062 1.367 3.3 1.367h6c0.399 0 0.778-0.179 1.031-0.488s0.354-0.716 0.276-1.108l-1.307 0.262z"></path>
<path d="M16.082 5.357c0.995-1.809 2.843-4.024 5.918-4.024 1.238 0 2.425 0.492 3.3 1.367s1.367 2.062 1.367 3.3-0.492 2.425-1.367 3.3c-0.875 0.875-2.062 1.367-3.3 1.367h-6c-0.399 0-0.778-0.179-1.031-0.488s-0.355-0.715-0.276-1.107l1.307 0.261c-1.307-0.261-1.308-0.261-1.307-0.261l0.001-0.005 0.001-0.007 0.004-0.021c0.004-0.017 0.009-0.041 0.015-0.071 0.013-0.059 0.032-0.142 0.058-0.244 0.051-0.205 0.129-0.492 0.237-0.834 0.215-0.679 0.559-1.599 1.072-2.532zM17.795 8h4.205c0.53 0 1.039-0.211 1.414-0.586s0.586-0.884 0.586-1.414c0-0.53-0.211-1.039-0.586-1.414s-0.884-0.586-1.414-0.586c-1.592 0-2.743 1.118-3.582 2.643-0.255 0.463-0.461 0.932-0.624 1.357zM17.307 9.597c-0 0-0 0 0 0v0z"></path>
</svg>
