<!-- Generated by IcoMoon.io -->
<svg version="1.1" xmlns="http://www.w3.org/2000/svg" width="22" height="32" viewBox="0 0 22 32">
<title>gps</title>
<path d="M11.2 0c-6.192 0-11.2 5.008-11.2 11.2 0 6.672 7.072 15.872 9.984 19.376 0.64 0.768 1.808 0.768 2.448 0 2.896-3.504 9.968-12.704 9.968-19.376 0-6.192-5.008-11.2-11.2-11.2zM11.2 15.2c-1.061 0-2.078-0.421-2.828-1.172s-1.172-1.768-1.172-2.828c0-1.061 0.421-2.078 1.172-2.828s1.768-1.172 2.828-1.172c1.061 0 2.078 0.421 2.828 1.172s1.172 1.768 1.172 2.828c0 1.061-0.421 2.078-1.172 2.828s-1.768 1.172-2.828 1.172z"></path>
</svg>
