<!-- Generated by IcoMoon.io -->
<svg version="1.1" xmlns="http://www.w3.org/2000/svg" width="32" height="32" viewBox="0 0 32 32">
<title>lel2</title>
<path d="M26.667 30.533c-0.134 0-0.267 0-0.4 0-4.267-0.533-8.533-2-12.133-4.267-3.333-2.134-6.267-5.067-8.4-8.4-2.4-3.6-3.867-7.867-4.267-12.133 0-1.067 0.267-2.133 0.933-2.933s1.6-1.333 2.667-1.467c0.133 0 0.267 0 0.4 0h4c2 0 3.733 1.467 4 3.467 0.133 1.2 0.4 2.4 0.8 3.467 0.533 1.467 0.133 3.067-0.933 4.267l-0.933 0.933c1.6 2.4 3.6 4.533 6.133 6.133l0.933-0.933c1.067-1.067 2.8-1.467 4.267-0.933 1.067 0.4 2.267 0.667 3.467 0.8 2 0.267 3.467 2 3.467 4v4c0 1.067-0.4 2.134-1.2 2.8s-1.733 1.2-2.8 1.2zM9.467 4h-4c-0.4 0-0.8 0.267-1.067 0.533-0.133 0.267-0.267 0.533-0.267 0.933 0.4 3.867 1.733 7.6 3.867 10.933 2 3.067 4.533 5.733 7.6 7.6 3.333 2.133 7.067 3.467 10.933 3.867 0.534 0 0.8-0.134 1.067-0.4s0.4-0.534 0.4-0.933v-4c0-0.667-0.533-1.2-1.2-1.333-1.333-0.133-2.667-0.533-4-1.067-0.533-0.133-1.067-0.133-1.467 0.267l-1.733 1.733c-0.4 0.4-1.067 0.533-1.6 0.267-3.6-2-6.533-4.933-8.533-8.533-0.133-0.533 0-1.2 0.4-1.6l1.733-1.733c0.267-0.267 0.4-0.933 0.267-1.333-0.533-1.333-0.8-2.667-1.067-4 0-0.667-0.667-1.2-1.333-1.2zM25.333 13.333c-0.666 0-1.2-0.4-1.333-1.067-0.4-2.133-2.133-3.733-4.267-4.267-0.667-0.133-1.2-0.8-1.067-1.6 0.133-0.667 0.8-1.2 1.6-1.067 3.2 0.667 5.733 3.067 6.267 6.267 0.134 0.667-0.267 1.467-1.067 1.6 0 0 0 0.133-0.134 0.133zM30.667 13.2c-0.667 0-1.2-0.533-1.334-1.2-0.533-4.933-4.4-8.8-9.467-9.467-0.667-0.133-1.2-0.8-1.2-1.467s0.8-1.2 1.467-1.2c6.267 0.667 11.067 5.467 11.733 11.733 0.133 0.667-0.4 1.333-1.2 1.467 0.133 0.133 0 0.133 0 0.133z"></path>
</svg>
