<!-- Generated by IcoMoon.io -->
<svg version="1.1" xmlns="http://www.w3.org/2000/svg" width="41" height="32" viewBox="0 0 41 32">
<title>let</title>
<path d="M35.81 0.762h-30.476c-2.095 0-3.79 1.714-3.79 3.81l-0.019 22.857c0 2.095 1.714 3.81 3.809 3.81h30.476c2.095 0 3.81-1.714 3.81-3.81v-22.857c0-2.095-1.714-3.81-3.81-3.81zM35.048 8.857l-13.467 8.419c-0.61 0.381-1.41 0.381-2.019 0l-13.467-8.419c-0.191-0.107-0.358-0.252-0.492-0.426s-0.23-0.373-0.284-0.585c-0.054-0.212-0.065-0.433-0.031-0.65s0.111-0.424 0.227-0.61c0.116-0.186 0.269-0.346 0.448-0.471s0.383-0.212 0.598-0.257c0.215-0.044 0.436-0.044 0.65-0.001s0.418 0.131 0.598 0.255l12.762 7.981 12.762-7.981c0.18-0.125 0.384-0.212 0.598-0.255s0.436-0.044 0.65 0.001c0.215 0.044 0.418 0.131 0.598 0.257s0.332 0.285 0.448 0.471c0.116 0.186 0.193 0.393 0.227 0.61s0.023 0.437-0.031 0.65c-0.054 0.212-0.151 0.411-0.285 0.585s-0.301 0.319-0.491 0.426z"></path>
</svg>
