<!-- Generated by IcoMoon.io -->
<svg version="1.1" xmlns="http://www.w3.org/2000/svg" width="32" height="32" viewBox="0 0 32 32">
<title>search</title>
<path d="M14.667 5.333c-5.155 0-9.333 4.179-9.333 9.333s4.179 9.333 9.333 9.333c5.155 0 9.333-4.179 9.333-9.333s-4.179-9.333-9.333-9.333zM2.667 14.666c0-6.627 5.373-12 12-12s12 5.373 12 12c0 6.628-5.373 12-12 12s-12-5.373-12-12z"></path>
<path d="M21.257 21.257c0.521-0.521 1.365-0.521 1.886 0l5.8 5.8c0.521 0.521 0.521 1.365 0 1.886s-1.365 0.521-1.886 0l-5.8-5.8c-0.521-0.521-0.521-1.365 0-1.886z"></path>
</svg>
