<!-- Generated by IcoMoon.io -->
<svg version="1.1" xmlns="http://www.w3.org/2000/svg" width="34" height="32" viewBox="0 0 34 32">
<title>star2</title>
<path d="M16.941 1.412c0.537 0 1.028 0.305 1.266 0.787l4.034 8.173 9.022 1.319c0.532 0.078 0.973 0.45 1.139 0.961s0.027 1.072-0.358 1.447l-6.527 6.357 1.54 8.981c0.091 0.53-0.127 1.065-0.562 1.381s-1.011 0.357-1.487 0.107l-8.068-4.243-8.068 4.243c-0.476 0.25-1.052 0.209-1.487-0.107s-0.653-0.851-0.562-1.381l1.54-8.981-6.527-6.357c-0.385-0.375-0.524-0.936-0.358-1.447s0.607-0.884 1.139-0.961l9.022-1.319 4.034-8.173c0.238-0.482 0.729-0.787 1.266-0.787zM16.941 6.013l-3.096 6.273c-0.205 0.416-0.602 0.705-1.062 0.772l-6.926 1.012 5.011 4.88c0.333 0.324 0.485 0.792 0.406 1.25l-1.182 6.893 6.192-3.257c0.411-0.216 0.903-0.216 1.314 0l6.193 3.257-1.182-6.893c-0.079-0.458 0.073-0.926 0.406-1.25l5.011-4.88-6.927-1.012c-0.459-0.067-0.856-0.356-1.062-0.772l-3.096-6.273z"></path>
</svg>
