<!-- Generated by IcoMoon.io -->
<svg version="1.1" xmlns="http://www.w3.org/2000/svg" width="32" height="32" viewBox="0 0 32 32">
<title>tel</title>
<path d="M16 32c-2.167 0-4.24-0.422-6.219-1.266s-3.682-1.979-5.109-3.406-2.563-3.13-3.406-5.109c-0.844-1.979-1.266-4.052-1.266-6.219s0.422-4.24 1.266-6.219 1.979-3.682 3.406-5.109c1.427-1.427 3.13-2.563 5.109-3.406s4.052-1.266 6.219-1.266c2.167 0 4.24 0.422 6.219 1.266s3.682 1.979 5.109 3.406c1.427 1.427 2.562 3.13 3.406 5.109s1.266 4.052 1.266 6.219c0 2.167-0.422 4.24-1.266 6.219s-1.979 3.682-3.406 5.109-3.13 2.562-5.109 3.406c-1.979 0.844-4.052 1.266-6.219 1.266zM24 10c0-0.542-0.193-1.010-0.578-1.406s-0.859-0.594-1.422-0.594h-12c-0.542 0-1.010 0.198-1.406 0.594s-0.594 0.865-0.594 1.406v2h3.563c1.208-1.333 2.688-2 4.438-2s3.229 0.667 4.437 2h3.563v-2zM12 16c0 1.104 0.391 2.047 1.172 2.828s1.724 1.172 2.828 1.172c1.104 0 2.047-0.391 2.828-1.172s1.172-1.724 1.172-2.828c0-1.104-0.391-2.047-1.172-2.828s-1.724-1.172-2.828-1.172c-1.104 0-2.047 0.391-2.828 1.172s-1.172 1.724-1.172 2.828zM24 14h-2.375c0.25 0.688 0.375 1.354 0.375 2 0 1.667-0.583 3.083-1.75 4.25s-2.583 1.75-4.25 1.75c-1.667 0-3.083-0.583-4.25-1.75s-1.75-2.583-1.75-4.25c0-0.646 0.125-1.313 0.375-2h-2.375v8c0 0.563 0.193 1.036 0.578 1.422s0.859 0.578 1.422 0.578h12c0.563 0 1.036-0.193 1.422-0.578s0.578-0.859 0.578-1.422v-8z"></path>
</svg>
