<!-- Generated by IcoMoon.io -->
<svg version="1.1" xmlns="http://www.w3.org/2000/svg" width="32" height="32" viewBox="0 0 32 32">
<title>tel1</title>
<path d="M18.593 8.296c3.583 0 5.111 1.528 5.111 5.111h3.407c0-5.494-3.024-8.519-8.518-8.519v3.407zM24.423 17.569c-0.327-0.298-0.758-0.456-1.2-0.443s-0.862 0.199-1.17 0.516l-4.077 4.193c-0.981-0.187-2.954-0.802-4.985-2.828-2.031-2.032-2.646-4.011-2.828-4.985l4.189-4.079c0.318-0.308 0.503-0.728 0.517-1.17s-0.145-0.873-0.443-1.2l-6.295-6.922c-0.298-0.328-0.712-0.527-1.155-0.555s-0.878 0.118-1.215 0.407l-3.697 3.171c-0.295 0.296-0.47 0.689-0.494 1.106-0.026 0.426-0.513 10.515 7.311 18.342 6.825 6.823 15.374 7.323 17.729 7.323 0.344 0 0.555-0.010 0.612-0.014 0.417-0.023 0.81-0.2 1.104-0.496l3.169-3.699c0.289-0.336 0.435-0.772 0.407-1.215s-0.226-0.857-0.554-1.155l-6.924-6.297z"></path>
</svg>
