<!-- Generated by IcoMoon.io -->
<svg version="1.1" xmlns="http://www.w3.org/2000/svg" width="32" height="32" viewBox="0 0 32 32">
<title>tick</title>
<path fill="#333" d="M1.333 16c0-8.1 6.566-14.667 14.667-14.667s14.667 6.566 14.667 14.667c0 8.1-6.566 14.667-14.667 14.667s-14.667-6.567-14.667-14.667z"></path>
<path fill="#fff" d="M23.081 10.724c0.521 0.521 0.521 1.365 0 1.886l-8.276 8.667c-0.521 0.521-1.365 0.521-1.886 0l-4-4c-0.521-0.521-0.521-1.365 0-1.886s1.365-0.521 1.886 0l3.057 3.057 7.333-7.724c0.521-0.521 1.365-0.521 1.886 0z"></path>
</svg>
