<!-- Generated by IcoMoon.io -->
<svg version="1.1" xmlns="http://www.w3.org/2000/svg" width="32" height="32" viewBox="0 0 32 32">
<title>user</title>
<path d="M5.953 20.619c1.25-1.25 2.946-1.953 4.714-1.953h10.667c1.768 0 3.464 0.702 4.714 1.953s1.953 2.946 1.953 4.714v2.667c0 0.736-0.597 1.333-1.333 1.333s-1.334-0.597-1.334-1.333v-2.667c0-1.061-0.421-2.078-1.171-2.828s-1.768-1.172-2.828-1.172h-10.667c-1.061 0-2.078 0.421-2.828 1.172s-1.172 1.768-1.172 2.828v2.667c0 0.736-0.597 1.333-1.333 1.333s-1.333-0.597-1.333-1.333v-2.667c0-1.768 0.702-3.464 1.953-4.714z"></path>
<path d="M16 5.333c-2.209 0-4 1.791-4 4s1.791 4 4 4c2.209 0 4-1.791 4-4s-1.791-4-4-4zM9.333 9.334c0-3.682 2.985-6.667 6.667-6.667s6.667 2.985 6.667 6.667c0 3.682-2.985 6.667-6.667 6.667s-6.667-2.985-6.667-6.667z"></path>
</svg>
